<svg xmlns="http://www.w3.org/2000/svg" version="1.1" xmlns:xlink="http://www.w3.org/1999/xlink" xmlns:svgjs="http://svgjs.dev/svgjs" width="1440" height="560" preserveAspectRatio="none" viewBox="0 0 1440 560"><g mask="url(&quot;#SvgjsMask1426&quot;)" fill="none"><rect width="1440" height="560" x="0" y="0" fill="url(&quot;#SvgjsLinearGradient1427&quot;)"></rect><path d="M1488 560L0 560 L0 357.89Q41.47 279.36, 120 320.82Q150.87 279.69, 192 310.55Q271.07 269.63, 312 348.7Q384.64 349.34, 384 421.98Q439.88 405.86, 456 461.74Q467.02 400.76, 528 411.78Q603.43 367.21, 648 442.64Q651.03 373.67, 720 376.7Q723.28 307.99, 792 311.27Q857.22 256.49, 912 321.7Q1030.54 320.24, 1032 438.78Q1049.67 384.45, 1104 402.12Q1129.05 307.16, 1224 332.21Q1270.63 306.85, 1296 353.48Q1300.65 286.13, 1368 290.79Q1448.64 251.44, 1488 332.08z" fill="rgba(9, 179, 227, 1)"></path><path d="M1512 560L0 560 L0 551.82Q66.19 546.01, 72 612.19Q108.18 528.37, 192 564.55Q236.74 489.28, 312 534.02Q402.02 504.04, 432 594.06Q446.86 488.92, 552 503.78Q580.46 460.24, 624 488.69Q703.33 448.02, 744 527.35Q819.37 530.72, 816 606.09Q784.58 454.67, 936 423.26Q994.77 410.03, 1008 468.8Q1130.95 471.75, 1128 594.71Q1119.36 466.07, 1248 457.43Q1299.72 389.15, 1368 440.88Q1429.99 430.87, 1440 492.85Q1501.76 482.61, 1512 544.37z" fill="rgba(255, 255, 255, 1)"></path></g><defs><mask id="SvgjsMask1426"><rect width="1440" height="560" fill="#ffffff"></rect></mask><linearGradient x1="50%" y1="100%" x2="50%" y2="0%" gradientUnits="userSpaceOnUse" id="SvgjsLinearGradient1427"><stop stop-color="#0e2a47" offset="0"></stop><stop stop-color="rgba(192, 255, 1, 1)" offset="1"></stop></linearGradient></defs></svg>