<svg xmlns="http://www.w3.org/2000/svg" version="1.1" xmlns:xlink="http://www.w3.org/1999/xlink" xmlns:svgjs="http://svgjs.dev/svgjs" width="2048" height="1080" preserveAspectRatio="none" viewBox="0 0 2048 1080"><g mask="url(&quot;#SvgjsMask1869&quot;)" fill="none"><rect width="2048" height="1080" x="0" y="0" fill="url(&quot;#SvgjsLinearGradient1870&quot;)"></rect><path d="M1010.19 131.67L1073.81 131.67L1073.81 195.29L1010.19 195.29z" stroke="rgba(0, 53, 108, 1)"></path><path d="M1637.66 168.4a90.88 90.88 0 1 0 37.42 177.87z" fill="rgba(255, 202, 8, 1)"></path><path d="M203.76 913.68 a106.11 106.11 0 1 0 212.22 0 a106.11 106.11 0 1 0 -212.22 0z" fill="rgba(0, 53, 108, 1)"></path><path d="M741.87 343.61L809.67 343.61L809.67 411.41L741.87 411.41z" stroke="rgba(255, 202, 8, 1)"></path><path d="M1151.25 1067.08L1159.36 1067.08L1159.36 1075.19L1151.25 1075.19z" stroke="rgba(0, 53, 108, 1)"></path><path d="M1384.44 533.62L1438.81 533.62L1438.81 587.99L1384.44 587.99z" fill="rgba(0, 53, 108, 1)"></path><path d="M543.13 671.38 a68.58 68.58 0 1 0 137.16 0 a68.58 68.58 0 1 0 -137.16 0z" fill="rgba(0, 53, 108, 1)"></path><path d="M1471.91 462.7a74.38 74.38 0 1 0 138.86-53.34z" stroke="rgba(0, 53, 108, 1)"></path><path d="M1820.52 573.51a65.99 65.99 0 1 0-80.85-104.31z" stroke="rgba(0, 53, 108, 1)"></path><path d="M1944.13 293.8L2011.27 293.8L2011.27 317.28L1944.13 317.28z" fill="rgba(0, 53, 108, 1)"></path><path d="M506.95 859.81L576.05 859.81L576.05 903.68L506.95 903.68z" stroke="rgba(0, 53, 108, 1)"></path><path d="M1702.23 155.46 a84.52 84.52 0 1 0 169.04 0 a84.52 84.52 0 1 0 -169.04 0z" fill="rgba(0, 53, 108, 1)"></path><path d="M2007.67 136.15a71.54 71.54 0 1 0-103.75-98.54z" stroke="rgba(0, 53, 108, 1)"></path><path d="M1471.15 442.62 a21.28 21.28 0 1 0 42.56 0 a21.28 21.28 0 1 0 -42.56 0z" fill="rgba(0, 53, 108, 1)"></path><path d="M1529.78 254.97L1615.03 254.97L1615.03 340.22L1529.78 340.22z" fill="rgba(255, 202, 8, 1)"></path><path d="M1784.07 296.97L1830.51 296.97L1830.51 343.41L1784.07 343.41z" fill="rgba(0, 53, 108, 1)"></path><path d="M921.12 982.6 a7.41 7.41 0 1 0 14.82 0 a7.41 7.41 0 1 0 -14.82 0z" fill="rgba(0, 53, 108, 1)"></path><path d="M1644.35 390.74L1688.98 390.74L1688.98 471.36L1644.35 471.36z" stroke="rgba(255, 202, 8, 1)"></path><path d="M923.6 12.51L937.05 12.51L937.05 32.24L923.6 32.24z" stroke="rgba(0, 53, 108, 1)"></path><path d="M1462.23 791.71L1510.27 791.71L1510.27 870.31L1462.23 870.31z" stroke="rgba(255, 202, 8, 1)"></path><path d="M1321.01 100.23L1333.07 100.23L1333.07 189.54L1321.01 189.54z" fill="rgba(0, 53, 108, 1)"></path><path d="M799.19 878.61a88.42 88.42 0 1 0 150.9-92.2z" stroke="rgba(255, 202, 8, 1)"></path><path d="M2020.08 96.55L2040.83 96.55L2040.83 117.3L2020.08 117.3z" fill="rgba(255, 202, 8, 1)"></path><path d="M1677.82 480.86 a32.64 32.64 0 1 0 65.28 0 a32.64 32.64 0 1 0 -65.28 0z" fill="rgba(0, 53, 108, 1)"></path></g><defs><mask id="SvgjsMask1869"><rect width="2048" height="1080" fill="#ffffff"></rect></mask><linearGradient x1="11.82%" y1="-22.41%" x2="88.18%" y2="122.41%" gradientUnits="userSpaceOnUse" id="SvgjsLinearGradient1870"><stop stop-color="#0e2a47" offset="0"></stop><stop stop-color="rgba(147, 158, 11, 1)" offset="1"></stop></linearGradient></defs></svg>